o unknown
v 1 0 1
v 1 1 1
v 0 1 1
v 0 0 1
v 0 0 0
v 0 1 0
v 1 1 0
v 1 0 0
vt 0 0.25
vt 0 0
vt 0.25 0
vt 0.25 0.25
vt 0.25 0.25
vt 0.25 0
vt 0.5 0
vt 0.5 0.25
vt 0.5 0.25
vt 0.5 0
vt 0.75 0
vt 0.75 0.25
vt 0.75 0.25
vt 0.75 0
vt 1 0
vt 1 0.25
vt 0 0.5
vt 0 0.25
vt 0.25 0.25
vt 0.25 0.5
vt 0.25 0.5
vt 0.25 0.25
vt 0.5 0.25
vt 0.5 0.5
vn 0 0 1
vn 0 0 -1
vn 1 0 0
vn -1 0 0
vn 0 1 0
vn 0 -1 0
f 1/1/1 2/2/1 3/3/1 4/4/1
f 5/5/2 6/6/2 7/7/2 8/8/2
f 1/9/3 8/10/3 7/11/3 2/12/3
f 3/13/4 6/14/4 5/15/4 4/16/4
f 2/17/5 7/18/5 6/19/5 3/20/5
f 4/21/6 5/22/6 8/23/6 1/24/6
o plane
v 0.5035451887938556 1.4999999999999998 -0.49999226558559673
v 0.4948185702243619 1.5 1.4999886958558717
v 0.503545188793858 -0.5 -0.4999922655855965
v 0.4948185702243643 -0.4999999999999998 1.4999886958558721
v 0.503545188793858 -0.5 -0.4999922655855965
v 0.4948185702243643 -0.4999999999999998 1.4999886958558721
v 0.5035451887938556 1.4999999999999998 -0.49999226558559673
v 0.4948185702243619 1.5 1.4999886958558717
vt 0.25 0.75
vt 0.25 1
vt 0 1
vt 0 0.75
vt 0.25 0.75
vt 0.25 1
vt 0 1
vt 0 0.75
vn 0.9999904807207346 1.2217900331384682e-15 0.004363309284746865
vn -0.9999904807207346 -1.2217900331384682e-15 -0.004363309284746865
f 9/25/7 10/26/7 12/27/7 11/28/7
f 13/29/8 14/30/8 16/31/8 15/32/8
o plane
v 1.5 0.4964548112061427 -0.49999226558559673
v 1.5 0.5051814297756373 1.4999886958558721
v -0.5 0.49645481120614293 -0.49999226558559673
v -0.5 0.5051814297756375 1.4999886958558721
v -0.5 0.49645481120614293 -0.49999226558559673
v -0.5 0.5051814297756375 1.4999886958558721
v 1.5 0.4964548112061427 -0.49999226558559673
v 1.5 0.5051814297756373 1.4999886958558721
vt 0.25 0.75
vt 0.25 1
vt 0 1
vt 0 0.75
vt 0.25 0.75
vt 0.25 1
vt 0 1
vt 0 0.75
vn -1.2246467991473535e-16 -0.9999904807207345 0.00436330928474731
vn 1.2246467991473535e-16 0.9999904807207345 -0.00436330928474731
f 17/33/9 18/34/9 20/35/9 19/36/9
f 21/37/10 22/38/10 24/39/10 23/40/10